<?xml version="1.0" standalone="no"?>
<!DOCTYPE svg PUBLIC "-//W3C//DTD SVG 20010904//EN"
 "http://www.w3.org/TR/2001/REC-SVG-20010904/DTD/svg10.dtd">
<svg version="1.0" xmlns="http://www.w3.org/2000/svg"
 width="132.000000pt" height="52.000000pt" viewBox="0 0 132.000000 52.000000"
 preserveAspectRatio="xMidYMid meet">
<metadata>
Created by potrace 1.10, written by Peter Selinger 2001-2011
</metadata>
<g transform="translate(0.000000,52.000000) scale(0.100000,-0.100000)"
fill="#000000" stroke="none">
<path d="M633 483 c-24 -5 -37 -28 -26 -46 11 -18 4 -50 -15 -64 -9 -7 -37
-13 -63 -13 -74 0 -80 -12 -78 -141 1 -72 -3 -114 -11 -123 -6 -8 -10 -25 -8
-38 l3 -23 225 0 225 0 3 23 c2 13 -2 30 -9 38 -9 11 -12 47 -10 121 3 129 -5
143 -84 143 -30 0 -57 5 -63 13 -14 17 -18 49 -8 65 16 26 -34 54 -81 45z m58
-23 c5 0 9 -7 9 -15 0 -11 -11 -15 -40 -15 -28 0 -40 4 -40 14 0 15 26 26 48
20 8 -2 18 -4 23 -4z m36 -112 c27 -26 33 -40 33 -73 0 -29 -6 -47 -20 -60
-19 -17 -21 -17 -39 0 -14 12 -38 18 -80 19 l-61 1 0 40 c0 30 7 46 32 72 44
45 89 45 135 1z m-172 -17 c-6 -5 -23 -11 -40 -13 l-30 -3 0 -108 c0 -59 -3
-107 -7 -107 -10 0 -11 224 -1 233 3 4 24 7 47 7 25 0 36 -4 31 -9z m293 -116
c1 -65 -1 -116 -4 -112 -4 4 -8 53 -8 110 l-1 102 -30 3 c-51 6 -55 24 -5 20
l45 -3 3 -120z m-305 49 c4 -35 -1 -59 -19 -98 l-23 -51 0 98 c-1 88 1 97 18
97 15 0 19 -10 24 -46z m277 -59 l0 -105 -92 0 c-64 0 -88 3 -78 10 8 5 22 10
30 10 45 1 92 23 110 53 17 28 18 34 5 54 -8 12 -15 36 -15 53 0 23 4 30 20
30 19 0 20 -7 20 -105z m-162 6 c20 3 32 -3 32 -16 0 -10 -11 -15 -35 -15 -19
0 -35 -4 -35 -10 0 -16 66 -12 80 5 7 8 18 15 25 15 7 0 18 7 25 15 15 19 40
20 40 2 0 -25 -45 -56 -99 -69 -29 -6 -55 -18 -58 -25 -6 -15 -113 -19 -113
-4 0 5 9 30 21 55 22 51 50 69 87 55 12 -5 26 -8 30 -8z m-64 -142 c13 -12
119 -12 131 0 6 5 39 11 75 13 55 2 65 0 68 -14 3 -17 -12 -18 -207 -18 -169
0 -211 3 -211 13 0 8 3 17 7 21 10 9 125 -3 137 -15z m116 11 c0 -5 -22 -10
-50 -10 -27 0 -50 5 -50 10 0 6 23 10 50 10 28 0 50 -4 50 -10z"/>
<path d="M647 343 c-13 -12 -7 -36 10 -49 10 -7 14 -16 10 -20 -4 -5 -12 -2
-17 6 -8 13 -10 13 -10 -1 0 -9 6 -21 13 -27 10 -8 16 -6 26 10 12 19 11 24
-10 41 -24 20 -24 20 -1 13 24 -8 29 3 10 22 -14 14 -22 15 -31 5z"/>
<path d="M520 432 c0 -5 9 -17 20 -27 16 -14 20 -15 20 -4 0 16 -19 39 -32 39
-4 0 -8 -4 -8 -8z"/>
<path d="M772 428 c-7 -7 -12 -19 -12 -27 0 -11 4 -10 20 4 21 19 26 35 12 35
-4 0 -13 -5 -20 -12z"/>
</g>
</svg>
